<svg width="16" height="16" viewBox="0 0 16 16" fill="none" xmlns="http://www.w3.org/2000/svg">
<rect width="16" height="16" rx="4" fill="black"/>
<path d="M3.2002 4.53044V7.73044H0.000193059C0.000193059 5.96314 1.43289 4.53044 3.2002 4.53044Z" fill="#985DF7"/>
<path d="M3.2 7.68044H0V12.4609H3.2V7.68044Z" fill="#EE69B1"/>
<path d="M6.40039 7.73044H3.20039L3.20039 4.53044C4.96769 4.53044 6.40039 5.96313 6.40039 7.73044Z" fill="#E44A28"/>
<path d="M3.2002 7.73044H6.4002V10.9304C4.63289 10.9304 3.2002 9.49774 3.2002 7.73044Z" fill="#F6A832"/>
<path d="M9.60059 4.53044V7.73044H6.40058C6.40058 5.96314 7.83328 4.53044 9.60059 4.53044Z" fill="#985DF7"/>
<path d="M6.40039 10.9304L6.40039 7.73043H9.60039C9.60039 9.49774 8.1677 10.9304 6.40039 10.9304Z" fill="#5FCC8A"/>
<path d="M12.8008 7.73044H9.60078V4.53044C11.3681 4.53044 12.8008 5.96313 12.8008 7.73044Z" fill="#E44A28"/>
<path d="M9.60059 7.73044H12.8006V10.9304C11.0333 10.9304 9.60059 9.49774 9.60059 7.73044Z" fill="#F6A832"/>
<path d="M16.0008 3H12.8008V7.78044H16.0008V3Z" fill="#58B9F8"/>
<path d="M12.8008 10.9304V7.73043H16.0008C16.0008 9.49774 14.5681 10.9304 12.8008 10.9304Z" fill="#5FCC8A"/>
</svg>
