<svg width="256" height="256" viewBox="0 0 256 256" fill="none" xmlns="http://www.w3.org/2000/svg">
<g clip-path="url(#clip0_2528_1801)">
<rect y="1" width="256" height="256" rx="64" fill="black"/>
<path d="M51.2002 76.487V127.687H0.000159264C0.000159264 99.4101 22.9233 76.487 51.2002 76.487Z" fill="#985DF7"/>
<path d="M51.2 126.887H0V203.374H51.2V126.887Z" fill="#EE69B1"/>
<path d="M102.4 127.687H51.2004L51.2004 76.487C79.4772 76.487 102.4 99.4101 102.4 127.687Z" fill="#E44A28"/>
<path d="M51.2002 127.687H102.4V178.887C74.1233 178.887 51.2002 155.964 51.2002 127.687Z" fill="#F6A832"/>
<path d="M153.6 76.487V127.687H102.4C102.4 99.4101 125.323 76.487 153.6 76.487Z" fill="#985DF7"/>
<path d="M102.4 178.887L102.4 127.687H153.6C153.6 155.964 130.677 178.887 102.4 178.887Z" fill="#5FCC8A"/>
<path d="M204.8 127.687H153.6V76.487C181.877 76.487 204.8 99.4101 204.8 127.687Z" fill="#E44A28"/>
<path d="M153.6 127.687H204.8V178.887C176.523 178.887 153.6 155.964 153.6 127.687Z" fill="#F6A832"/>
<path d="M256 52H204.8V128.487H256V52Z" fill="#58B9F8"/>
<path d="M204.8 178.887V127.687H256C256 155.964 233.077 178.887 204.8 178.887Z" fill="#5FCC8A"/>
</g>
<defs>
<clipPath id="clip0_2528_1801">
<rect width="256" height="256" fill="white"/>
</clipPath>
</defs>
</svg>
